<svg xmlns="http://www.w3.org/2000/svg" xmlns:xlink="http://www.w3.org/1999/xlink" version="1.1" style="enable-background:new 0 0 146 33.3;" xml:space="preserve" width="36.8947377813968" height="36.91812789831931"><rect id="backgroundrect" width="100%" height="100%" x="0" y="0" fill="none" stroke="none" class="" style=""/>
<style type="text/css">
	.st0{fill-rule:evenodd;clip-rule:evenodd;fill:#B4FEC9;}
	.st1{fill-rule:evenodd;clip-rule:evenodd;fill:#0E5958;}
	.st2{fill-rule:evenodd;clip-rule:evenodd;fill:#FFFFFF;}
	.st3{fill-rule:evenodd;clip-rule:evenodd;fill:#FFCC00;}
</style>


<g class="currentLayer" style=""><title>Layer 1</title><g id="svg_2" class="">
	<path class="st1" d="M25.5,16.7c-0.2-0.7-0.6-1.2-1.2-1.6c0.1-0.3,0.2-0.6,0.2-0.9c0-1.5-1.2-2.7-2.7-2.7c-0.1,0-0.1,0-0.2,0   c-0.4-1-1.4-1.6-2.5-1.6c-0.3,0-0.5,0-0.7,0.1c-0.1,0-0.2,0.1-0.4,0.1c-0.1,0-0.2-0.1-0.4-0.1c-0.2-0.1-0.5-0.1-0.7-0.1   c-1.1,0-2.1,0.7-2.5,1.6c-0.1,0-0.1,0-0.2,0c-1.5,0-2.7,1.2-2.7,2.7c0,0.3,0.1,0.7,0.2,0.9c-0.6,0.3-1,0.9-1.2,1.6   c-0.4,0.1-0.8,0.2-1.1,0.3l0.1,1.2c0,0,0.4-0.1,0.5,0.3c0.1,0.4,0.4,2.2,1,2.9c0.4,0.5,1.1,0.8,1.9,0.8c0.2,0.9,0.8,1.6,1.6,2   l0.3,1.8l0,0l0,0l0.2,1.3v0l0.3,1.5h1l0.3,1.3c0,0.1,0.1,0.2,0.2,0.2h2.8c0.1,0,0.2-0.1,0.2-0.2l0.3-1.3h1l0.8-4.5   c0.8-0.4,1.4-1.1,1.6-2c0.7-0.1,1.4-0.3,1.9-0.8c0.6-0.7,0.9-2.5,1-2.9c0.1-0.4,0.5-0.3,0.5-0.3l0.1-1.2   C26.3,16.8,26,16.7,25.5,16.7z M16.8,18.5c0,0,0,0.1,0,0.1c0,0,0,0,0,0.1c0,0,0,0.1,0,0.1c0,0,0,0,0,0.1c0,0,0,0.1,0,0.1   c0,0,0,0,0,0.1c0,0,0,0.1,0,0.1c0,0,0,0,0,0.1c0,0.1-0.1,0.3-0.1,0.4c0,0,0,0,0,0.1c0,0,0,0.1,0,0.1c0,0,0,0,0,0.1c0,0,0,0.1,0,0.1   c0,0,0,0,0,0.1c0,0,0,0.1,0,0.1c0,0,0,0,0,0.1c0,0,0,0.1,0,0.1c0,0,0,0,0,0.1c0,0,0,0.1,0,0.1c0,0,0,0,0,0c0,0,0,0.1-0.1,0.1   c0,0.1-0.1,0.1-0.1,0.2c0,0,0,0,0,0.1c0,0-0.1,0.1-0.1,0.1c0,0-0.1,0.1-0.1,0.1c0,0-0.1,0.1-0.1,0.1c0,0-0.1,0.1-0.1,0.1   c0,0,0,0-0.1,0c-0.3,0.2-0.7,0.4-1.3,0.4c-0.8,0.1-1.8,0-2.3-0.3l0,0c0,0,0,0,0,0c0,0-0.1,0-0.1-0.1c0,0-0.1,0-0.1-0.1   c-0.5-0.3-0.7-1.2-0.8-1.8c0,0,0-0.1,0-0.1c0,0,0,0,0-0.1c0,0,0,0,0,0c0,0,0-0.1,0-0.1c0,0,0,0,0,0c0,0,0-0.1,0-0.1c0,0,0,0,0,0   c0,0,0-0.1,0-0.1c0,0,0,0,0,0c0,0,0-0.1,0-0.1c0,0,0,0,0,0c0,0,0-0.1,0-0.1c0,0,0,0,0,0c0,0,0-0.1,0-0.1c0,0,0,0,0,0   c0-0.5,0.1-0.9,0.4-1.1c0,0,0,0,0,0c0,0,0,0,0,0c0,0,0.1-0.1,0.1-0.1c0,0,0,0,0,0c0,0,0.1,0,0.1-0.1c0,0,0,0,0,0   c0.1,0,0.1,0,0.2-0.1c0,0,0,0,0,0c0.1,0,0.3-0.1,0.4-0.1c0,0,0,0,0,0c0.1,0,0.1,0,0.2,0c0,0,0,0,0.1,0c0.1,0,0.1,0,0.2,0   c0,0,0,0,0,0c0.3,0,0.7,0,1,0c0,0,0,0,0,0c0.1,0,0.1,0,0.2,0c0,0,0,0,0,0c0.1,0,0.1,0,0.2,0c0.1,0,0.1,0,0.2,0c0.1,0,0.2,0,0.4,0   c0.1,0,0.2,0,0.2,0c0,0,0,0,0.1,0c0.1,0,0.2,0,0.3,0.1c0.1,0,0.2,0,0.3,0.1c0,0,0,0,0,0c0.5,0.1,1,0.3,1.1,0.6   c0,0.1,0.1,0.2,0.1,0.3c0,0,0,0.1,0,0.1c0,0,0,0,0,0.1C16.8,18.4,16.8,18.4,16.8,18.5C16.8,18.5,16.8,18.5,16.8,18.5z M25.3,18.6   c0,0,0,0.1,0,0.1c0,0,0,0,0,0c0,0,0,0.1,0,0.1c0,0,0,0,0,0c0,0,0,0.1,0,0.1c0,0,0,0,0,0c0,0,0,0.1,0,0.1c0,0,0,0,0,0   c0,0,0,0.1,0,0.1c0,0,0,0,0,0c0,0,0,0.1,0,0.1c0,0,0,0,0,0c0,0,0,0,0,0.1c0,0,0,0.1,0,0.1c-0.1,0.6-0.4,1.5-0.8,1.8   c0,0-0.1,0-0.1,0.1c0,0,0,0,0,0c0,0,0,0-0.1,0c0,0,0,0,0,0c-0.3,0.1-0.7,0.2-1.1,0.3c-0.4,0-0.8,0-1.2,0c-0.5-0.1-0.9-0.2-1.3-0.4   c0,0,0,0-0.1,0c0,0-0.1-0.1-0.1-0.1c0,0-0.1-0.1-0.1-0.1c0,0-0.1-0.1-0.1-0.1c0,0-0.1-0.1-0.1-0.1c0,0,0,0,0-0.1   c0-0.1-0.1-0.1-0.1-0.2c0,0,0-0.1-0.1-0.1c0,0,0,0,0,0c0,0,0-0.1,0-0.1c0,0,0,0,0-0.1c0,0,0-0.1,0-0.1c0,0,0,0,0-0.1   c0,0,0-0.1,0-0.1c0,0,0,0,0-0.1c0,0,0-0.1,0-0.1c0,0,0,0,0-0.1c0,0,0-0.1,0-0.1c0,0,0,0,0-0.1c0-0.1,0-0.1,0-0.2c0,0,0,0,0,0   c0-0.1,0-0.1,0-0.2c0,0,0,0,0-0.1c0,0,0-0.1,0-0.1c0,0,0,0,0-0.1c0,0,0-0.1,0-0.1c0,0,0-0.1,0-0.1c0,0,0-0.1,0-0.1c0,0,0,0,0-0.1   c0,0,0-0.1,0-0.1c0,0,0,0,0-0.1c0,0,0-0.1,0-0.1c0,0,0,0,0-0.1c0-0.1,0-0.1,0-0.1c0-0.1,0-0.2,0.1-0.3c0.1-0.3,0.6-0.5,1.1-0.6   c0,0,0,0,0,0c0.1,0,0.2-0.1,0.4-0.1c0,0,0.1,0,0.1,0c0,0,0.1,0,0.1,0c0,0,0,0,0.1,0c0.1,0,0.2,0,0.3,0c0,0,0.1,0,0.1,0   c0,0,0.1,0,0.1,0c0,0,0,0,0,0c0.1,0,0.2,0,0.3,0c0.1,0,0.1,0,0.2,0c0,0,0,0,0.1,0c0.1,0,0.1,0,0.2,0c0,0,0.1,0,0.1,0   c0,0,0.1,0,0.1,0c0,0,0.1,0,0.1,0c0,0,0,0,0.1,0c0,0,0,0,0,0c0,0,0.1,0,0.1,0c0.1,0,0.1,0,0.2,0c0,0,0,0,0,0c0,0,0,0,0.1,0   c0,0,0.1,0,0.1,0c0.1,0,0.1,0,0.2,0c0,0,0.1,0,0.1,0c0.1,0,0.1,0,0.2,0c0,0,0.1,0,0.1,0c0.1,0,0.1,0,0.2,0c0,0,0.1,0,0.1,0   c0,0,0.1,0,0.1,0c0,0,0.1,0,0.1,0c0,0,0.1,0,0.1,0c0,0,0.1,0,0.1,0c0,0,0.1,0,0.1,0c0.1,0,0.1,0.1,0.2,0.1c0,0,0,0,0,0c0,0,0,0,0,0   c0,0,0,0,0,0C25.3,17.7,25.3,18.2,25.3,18.6C25.3,18.6,25.3,18.6,25.3,18.6z" id="svg_3"/>
	<path class="st2" d="M25.3,18.6c0,0,0,0.1,0,0.1c0,0,0,0,0,0c0,0,0,0.1,0,0.1c0,0,0,0,0,0c0,0,0,0.1,0,0.1c0,0,0,0,0,0   c0,0,0,0.1,0,0.1c0,0,0,0,0,0c0,0,0,0.1,0,0.1c0,0,0,0,0,0c0,0,0,0.1,0,0.1c0,0,0,0,0,0c0,0,0,0,0,0.1c0,0,0,0.1,0,0.1   c-0.1,0.6-0.4,1.5-0.8,1.8c0,0-0.1,0-0.1,0.1c0,0,0,0,0,0c0,0,0,0-0.1,0c0,0,0,0,0,0c-0.3,0.1-0.7,0.2-1.1,0.3c-0.4,0-0.8,0-1.2,0   c-0.5-0.1-0.9-0.2-1.3-0.4c0,0,0,0-0.1,0c0,0-0.1-0.1-0.1-0.1c0,0-0.1-0.1-0.1-0.1c0,0-0.1-0.1-0.1-0.1c0,0-0.1-0.1-0.1-0.1   c0,0,0,0,0-0.1c0-0.1-0.1-0.1-0.1-0.2c0,0,0-0.1-0.1-0.1c0,0,0,0,0,0c0,0,0-0.1,0-0.1c0,0,0,0,0-0.1c0,0,0-0.1,0-0.1c0,0,0,0,0-0.1   c0,0,0-0.1,0-0.1c0,0,0,0,0-0.1c0,0,0-0.1,0-0.1c0,0,0,0,0-0.1c0,0,0-0.1,0-0.1c0,0,0,0,0-0.1c0-0.1,0-0.1,0-0.2c0,0,0,0,0,0   c0-0.1,0-0.1,0-0.2c0,0,0,0,0-0.1c0,0,0-0.1,0-0.1c0,0,0,0,0-0.1c0,0,0-0.1,0-0.1c0,0,0-0.1,0-0.1c0,0,0-0.1,0-0.1c0,0,0,0,0-0.1   c0,0,0-0.1,0-0.1c0,0,0,0,0-0.1c0,0,0-0.1,0-0.1c0,0,0,0,0-0.1c0-0.1,0-0.1,0-0.1c0-0.1,0-0.2,0.1-0.3c0.1-0.3,0.6-0.5,1.1-0.6   c0,0,0,0,0,0c0.1,0,0.2-0.1,0.4-0.1c0,0,0.1,0,0.1,0c0,0,0.1,0,0.1,0c0,0,0,0,0.1,0c0.1,0,0.2,0,0.3,0c0,0,0.1,0,0.1,0   c0,0,0.1,0,0.1,0c0,0,0,0,0,0c0.1,0,0.2,0,0.3,0c0.1,0,0.1,0,0.2,0c0,0,0,0,0.1,0c0.1,0,0.1,0,0.2,0c0,0,0.1,0,0.1,0   c0,0,0.1,0,0.1,0c0,0,0.1,0,0.1,0c0,0,0,0,0.1,0c0,0,0,0,0,0c0,0,0.1,0,0.1,0c0.1,0,0.1,0,0.2,0c0,0,0,0,0,0c0,0,0,0,0.1,0   c0,0,0.1,0,0.1,0c0.1,0,0.1,0,0.2,0c0,0,0.1,0,0.1,0c0.1,0,0.1,0,0.2,0c0,0,0.1,0,0.1,0c0.1,0,0.1,0,0.2,0c0,0,0.1,0,0.1,0   c0,0,0.1,0,0.1,0c0,0,0.1,0,0.1,0c0,0,0.1,0,0.1,0c0,0,0.1,0,0.1,0c0,0,0.1,0,0.1,0c0.1,0,0.1,0.1,0.2,0.1c0,0,0,0,0,0c0,0,0,0,0,0   c0,0,0,0,0,0C25.3,17.7,25.3,18.2,25.3,18.6C25.3,18.6,25.3,18.6,25.3,18.6z" id="svg_4"/>
	<path class="st2" d="M12,21.5C12,21.5,12,21.5,12,21.5c0,0-0.1,0-0.1-0.1c0,0-0.1,0-0.1-0.1c-0.5-0.3-0.7-1.2-0.8-1.8   c0,0,0-0.1,0-0.1c0,0,0,0,0-0.1c0,0,0,0,0,0c0,0,0-0.1,0-0.1c0,0,0,0,0,0c0,0,0-0.1,0-0.1c0,0,0,0,0,0c0,0,0-0.1,0-0.1c0,0,0,0,0,0   c0,0,0-0.1,0-0.1c0,0,0,0,0,0c0,0,0-0.1,0-0.1c0,0,0,0,0,0c0,0,0-0.1,0-0.1c0,0,0,0,0,0c0-0.5,0.1-0.9,0.4-1.1c0,0,0,0,0,0   c0,0,0,0,0,0c0,0,0.1-0.1,0.1-0.1c0,0,0,0,0,0c0,0,0.1,0,0.1-0.1c0,0,0,0,0,0c0.1,0,0.1,0,0.2-0.1c0,0,0,0,0,0   c0.1,0,0.3-0.1,0.4-0.1c0,0,0,0,0,0c0.1,0,0.1,0,0.2,0c0,0,0,0,0.1,0c0.1,0,0.1,0,0.2,0c0,0,0,0,0,0c0.3,0,0.7,0,1,0c0,0,0,0,0,0   c0.1,0,0.1,0,0.2,0c0,0,0,0,0,0c0.1,0,0.1,0,0.2,0c0.1,0,0.1,0,0.2,0c0.1,0,0.2,0,0.4,0c0.1,0,0.2,0,0.2,0c0,0,0,0,0.1,0   c0.1,0,0.2,0,0.3,0.1c0.1,0,0.2,0,0.3,0.1c0,0,0,0,0,0c0.5,0.1,1,0.3,1.1,0.6c0,0.1,0.1,0.2,0.1,0.3c0,0,0,0.1,0,0.1c0,0,0,0,0,0.1   c0,0,0,0.1,0,0.1c0,0,0,0,0,0.1c0,0,0,0.1,0,0.1c0,0,0,0,0,0.1c0,0,0,0.1,0,0.1c0,0,0,0,0,0.1c0,0,0,0.1,0,0.1c0,0,0,0,0,0.1   c0,0,0,0.1,0,0.1c0,0,0,0,0,0.1c0,0.1-0.1,0.3-0.1,0.4c0,0,0,0,0,0.1c0,0,0,0.1,0,0.1c0,0,0,0,0,0.1c0,0,0,0.1,0,0.1c0,0,0,0,0,0.1   c0,0,0,0.1,0,0.1c0,0,0,0,0,0.1c0,0,0,0.1,0,0.1c0,0,0,0,0,0.1c0,0,0,0.1,0,0.1c0,0,0,0,0,0c0,0,0,0.1-0.1,0.1   c0,0.1-0.1,0.1-0.1,0.2c0,0,0,0,0,0.1c0,0-0.1,0.1-0.1,0.1c0,0-0.1,0.1-0.1,0.1c0,0-0.1,0.1-0.1,0.1c0,0-0.1,0.1-0.1,0.1   c0,0,0,0-0.1,0c-0.3,0.2-0.7,0.4-1.3,0.4C13.5,21.9,12.6,21.8,12,21.5L12,21.5z" id="svg_5"/>
	<path class="st3" d="M28.7,18.2c0-0.2,0.2-0.4,0.4-0.4h3.5c0.2,0,0.4,0.2,0.4,0.4c0,0.2-0.2,0.4-0.4,0.4h-3.5   C28.9,18.6,28.7,18.4,28.7,18.2L28.7,18.2z M28.7,18.2" id="svg_6"/>
	<path class="st3" d="M3,18.2c0-0.2,0.2-0.4,0.4-0.4h3.5c0.2,0,0.4,0.2,0.4,0.4c0,0.2-0.2,0.4-0.4,0.4H3.4C3.2,18.6,3,18.4,3,18.2   L3,18.2z M3,18.2" id="svg_7"/>
	<path class="st3" d="M25.6,10.6c-0.2-0.2-0.2-0.5,0-0.6l2.5-2.5c0.2-0.2,0.5-0.2,0.6,0c0.2,0.2,0.2,0.5,0,0.6l-2.5,2.5   C26.1,10.8,25.8,10.8,25.6,10.6L25.6,10.6z M25.6,10.6" id="svg_8"/>
	<path class="st3" d="M7.4,28.8c-0.2-0.2-0.2-0.5,0-0.6l2.5-2.5c0.2-0.2,0.5-0.2,0.6,0c0.2,0.2,0.2,0.5,0,0.6L8,28.8   C7.9,29,7.6,29,7.4,28.8L7.4,28.8z M7.4,28.8" id="svg_9"/>
	<path class="st3" d="M18.1,7.5c-0.2,0-0.4-0.2-0.4-0.4V3.5c0-0.2,0.2-0.4,0.4-0.4s0.4,0.2,0.4,0.4V7C18.5,7.3,18.3,7.5,18.1,7.5   L18.1,7.5z M18.1,7.5" id="svg_10"/>
	<path class="st3" d="M10.5,10.6c-0.2,0.2-0.5,0.2-0.6,0L7.4,8.1C7.2,8,7.2,7.7,7.4,7.5c0.2-0.2,0.5-0.2,0.6,0l2.5,2.5   C10.7,10.1,10.7,10.4,10.5,10.6L10.5,10.6z M10.5,10.6" id="svg_11"/>
	<path class="st3" d="M28.7,28.8c-0.2,0.2-0.5,0.2-0.6,0l-2.5-2.5c-0.2-0.2-0.2-0.5,0-0.6c0.2-0.2,0.5-0.2,0.6,0l2.5,2.5   C28.9,28.3,28.9,28.6,28.7,28.8L28.7,28.8z M28.7,28.8" id="svg_12"/>
	<path class="st3" d="M18.9,17.2c0.3-0.1,0.5-0.2,0.8-0.3c1-0.3,3.2-0.6,5.1-0.4c-0.2-0.3-0.4-0.6-0.7-0.9l-0.3-0.2   c-0.2-0.1-0.2-0.3-0.1-0.5c0.1-0.2,0.2-0.6,0.2-0.9c0-1.1-0.9-2-2-2c0.1,0.7,0,1.4-0.4,2c0.4,0.4,0.6,1,0.5,1.6   c-0.1,0.6-0.8,0.4-0.7-0.1c0.2-1-0.8-1.8-1.7-1.3c-0.1,0-0.1,0.1-0.2,0.1c-0.3,0-0.5-0.5-0.1-0.7c0.5-0.3,1.2-0.3,1.8,0   c0.9-1.4-0.1-3.2-1.7-3.2c-0.3,0-0.5,0-0.7,0.1v5c0,0.2,0,0.4,0,0.6C18.4,16.7,18.6,17,18.9,17.2z" id="svg_13"/>
	<path class="st2" d="M22.1,12.8c0.1-0.1,0.2-0.1,0.3-0.1c0.2,0,0.4,0.1,0.6,0.3c0.6,0.5,0.7,1.4,0.3,2c-0.1,0.1-0.1,0.1-0.2,0.2   c-0.3,0.3-0.6-0.1-0.3-0.4c0,0,0.1-0.1,0.1-0.1c0.3-0.4,0.2-1-0.2-1.3c-0.1-0.1-0.2-0.1-0.3-0.2c-0.1,0-0.1,0-0.2-0.1   C22.1,13.1,22,12.9,22.1,12.8z" id="svg_14"/>
	<path class="st2" d="M18.8,11.1c0.2-0.1,0.4-0.1,0.7,0c0.8,0.1,1.3,0.9,1.2,1.6c0,0.1,0,0.2-0.1,0.3c-0.1,0.4-0.6,0.2-0.5-0.2   c0-0.1,0-0.1,0-0.2c0.1-0.5-0.3-0.9-0.8-1c-0.1,0-0.3,0-0.4,0c-0.1,0-0.1,0.1-0.2,0c-0.1,0-0.2-0.2-0.2-0.3   C18.6,11.2,18.7,11.2,18.8,11.1z" id="svg_15"/>
	<path class="st3" d="M21.3,22.2c-1-0.2-1.7-0.8-2-1.6c-0.4-1-0.6-1.9-0.8-2.2c0,0,0,0,0,0v5h3.3c0.2-0.1,0.3-0.3,0.5-0.4l0.3-0.6   l-0.4,0C21.8,22.4,21.6,22.3,21.3,22.2z" id="svg_16"/>
	<path class="st3" d="M17.7,18.5c-0.2,0.3-0.5,1.2-0.8,2.2c-0.3,0.9-1,1.4-2,1.6c-0.4,0.1-0.8,0.2-1.2,0.1c0.1,0.4,0.4,0.8,0.8,1.1   h3.3L17.7,18.5C17.7,18.4,17.7,18.4,17.7,18.5z" id="svg_17"/>
	<path class="st1" d="M15.4,18.8c-0.1-0.1-0.3-0.1-0.4,0l-1.9,1.9c-0.1,0.1-0.1,0.3,0,0.4c0.1,0.1,0.3,0.1,0.4,0l1.9-1.9   C15.5,19,15.5,18.9,15.4,18.8z" id="svg_18"/>
	<path class="st1" d="M13.3,20.2l1.8-1.8c0.1-0.1,0.1-0.3,0-0.4c-0.1-0.1-0.3-0.1-0.4,0L13,19.8c-0.1,0.1-0.1,0.3,0,0.4   C13.1,20.3,13.2,20.3,13.3,20.2z" id="svg_19"/>
	<path class="st1" d="M14.2,17.9c-0.1-0.1-0.3-0.1-0.4,0L12,19.8c-0.1,0.1-0.1,0.3,0,0.4c0.1,0.1,0.3,0.1,0.4,0l1.9-1.9   C14.3,18.2,14.3,18,14.2,17.9z" id="svg_20"/>
	<path class="st1" d="M23.8,18.8l-1.9,1.9c-0.1,0.1-0.1,0.3,0,0.4c0.1,0.1,0.3,0.1,0.4,0l1.9-1.9c0.1-0.1,0.1-0.3,0-0.4   C24,18.7,23.9,18.7,23.8,18.8z" id="svg_21"/>
	<path class="st1" d="M22,20.2l1.8-1.8c0.1-0.1,0.1-0.3,0-0.4c-0.1-0.1-0.3-0.1-0.4,0l-1.8,1.8c-0.1,0.1-0.1,0.3,0,0.4   C21.8,20.3,21.9,20.3,22,20.2z" id="svg_22"/>
	<path class="st1" d="M22.9,17.9c-0.1-0.1-0.3-0.1-0.4,0l-1.9,1.9c-0.1,0.1-0.1,0.3,0,0.4c0.1,0.1,0.3,0.1,0.4,0l1.9-1.9   C23,18.2,23,18,22.9,17.9z" id="svg_23"/>
	<path class="st1" d="M12.1,15.7c0.1,0,0.1-0.1,0.2-0.1c0,0,0.1,0,0.1-0.1c0.1-0.1,0.2-0.2,0.2-0.3c0,0,0-0.1,0-0.1   c0,0,0-0.1-0.1-0.1c0-0.1-0.1-0.1-0.1-0.2c-0.1-0.2-0.1-0.4-0.1-0.7c0-1.1,0.9-2,2-2c0,0.1,0,0.3,0,0.4c0,0.6,0.2,1.1,0.5,1.6   c-0.3,0.3-0.5,0.8-0.5,1.3c0,0.1,0,0.2,0,0.4c0.1,0.6,0.8,0.4,0.7-0.1c0-0.1,0-0.2,0-0.2c0-0.7,0.5-1.2,1.2-1.2   c0.2,0,0.4,0,0.5,0.1c0.1,0,0.1,0.1,0.2,0.1c0.2,0,0.4-0.2,0.4-0.4c0-0.1-0.1-0.3-0.2-0.3c-0.3-0.1-0.6-0.2-0.9-0.2   c-0.3,0-0.6,0.1-0.9,0.2c-0.2-0.3-0.3-0.7-0.3-1.1c0-0.1,0-0.2,0-0.3c0-0.2,0.1-0.5,0.2-0.7c0.3-0.6,1-1.1,1.8-1.1   c0.3,0,0.5,0,0.7,0.1v5c0,0.2,0,0.4,0,0.6c0,0.4-0.2,0.8-0.5,1c-0.3-0.1-0.5-0.2-0.8-0.3c-1-0.3-3.2-0.6-5.1-0.4   C11.5,16.2,11.8,15.9,12.1,15.7z" id="svg_24"/>
	<path class="st2" d="M18.9,29.2c0,0.1,0,0.1-0.1,0.1h-1.6c-0.1,0-0.1-0.1-0.1-0.1l-0.1-0.5H19L18.9,29.2z" id="svg_25"/>
	<polygon class="st2" points="15.9,28 15.8,27.4 20.2,28  " id="svg_26"/>
	<polygon class="st2" points="20.4,27.3 15.6,26.7 15.5,26.1 20.5,26.8  " id="svg_27"/>
	<polygon class="st2" points="20.6,26.2 15.4,25.4 15.3,24.8 20.7,25.6  " id="svg_28"/>
	<polygon class="st2" points="20.8,24.9 15.6,24.1 20.9,24.1  " id="svg_29"/>
	<path class="st3" d="M14.9,12.6c0,0.4,0.1,0.8,0.3,1.1c0.6-0.3,1.2-0.3,1.8,0c0.4,0.2,0.2,0.7-0.1,0.7c-0.2,0-0.3-0.2-0.8-0.2   c-0.8,0-1.3,0.7-1.2,1.5c0.1,0.6-0.6,0.7-0.7,0.1c-0.1-0.6,0.1-1.2,0.5-1.6c-0.4-0.6-0.6-1.3-0.4-2c-1.4,0-2.3,1.4-1.9,2.6l0.1,0.3   c0.1,0.2,0,0.3-0.1,0.4l-0.3,0.2c-0.3,0.2-0.6,0.5-0.7,0.9c1.9-0.2,4.1,0.1,5.1,0.4c0.2,0.1,0.5,0.2,0.8,0.3c0.3-0.2,0.5-0.6,0.5-1   c0-0.2,0-0.3,0-0.6v-5C16.4,10.2,14.9,11.2,14.9,12.6z" id="svg_30"/>
	<path class="st2" d="M13.9,13.2c-0.1,0.1-0.1,0-0.2,0.1c-0.1,0-0.2,0.1-0.4,0.2c-0.4,0.3-0.5,0.9-0.2,1.3c0,0,0.1,0.1,0.1,0.1   c0.3,0.3,0,0.7-0.3,0.4c-0.1-0.1-0.1-0.1-0.2-0.2c-0.5-0.6-0.3-1.5,0.3-2c0.2-0.2,0.4-0.3,0.6-0.3c0.1,0,0.2,0,0.3,0.1   C14.1,12.9,14.1,13.1,13.9,13.2z" id="svg_31"/>
	<path class="st2" d="M17.3,11.6c-0.1,0-0.1,0-0.2,0c-0.1,0-0.3,0-0.4,0c-0.5,0.1-0.8,0.6-0.8,1c0,0.1,0,0.1,0,0.2   c0.1,0.4-0.4,0.6-0.5,0.2c0-0.1,0-0.2-0.1-0.3c-0.1-0.8,0.5-1.5,1.2-1.6c0.2,0,0.5,0,0.7,0c0.1,0,0.2,0.1,0.2,0.2   C17.5,11.5,17.4,11.6,17.3,11.6z" id="svg_32"/>
</g></g></svg>